<?xml version="1.0" encoding="UTF-8"?>
<!-- Uploaded to: SVG Find, www.svgrepo.com, Generator: SVG Find Mixer Tools -->
<svg fill="#000000" width="800px" height="800px" version="1.1" viewBox="144 144 512 512" xmlns="http://www.w3.org/2000/svg">
 <g>
  <path d="m557.44 549.57v-42.438c0-24.93-16.824-46.816-40.902-53.238l-77.176-20.586v-16.547c12.965-12.73 21.531-29.891 23.254-49.012 18.121-3.5195 31.848-19.465 31.848-38.598 0-8.8555-3.0469-16.949-8.0039-23.531 18.758-7.6562 31.621-25.941 31.621-47.316 0-14.074-5.7148-27.316-15.809-36.961 0.042969-0.79297 0.066407-1.5859 0.066407-2.3984 0-30.387-24.727-55.105-55.105-55.105-9.1172 0-17.957 2.2266-25.914 6.4961-10.102-9.1953-23.277-14.367-37.062-14.367-13.793 0-26.969 5.1641-37.062 14.367-7.957-4.2656-16.797-6.4961-25.914-6.4961-30.379 0-55.105 24.719-55.105 55.105 0 2.0234 0.11719 4.0625 0.34766 6.0938-10.281 9.6602-16.09 22.977-16.09 37.203 0 20.57 11.926 38.266 29.543 46.398-3.6914 5.9883-5.9258 12.973-5.9258 20.512 0 19.129 13.73 35.078 31.852 38.605 1.7227 19.121 10.289 36.281 23.254 49.012v16.547l-77.176 20.586c-24.086 6.4141-40.906 28.301-40.906 53.23v42.438h-13.203l-37.785 94.465h448.34l-37.785-94.465zm-94.461-198.25v-44.328c9.1406 3.2578 15.742 11.918 15.742 22.168s-6.6055 18.902-15.742 22.16zm-196.8-89.078c0-10.934 4.9766-21.098 13.633-27.883l3.8086-2.9844-0.94531-4.7461c-0.5-2.5586-0.75391-5.1406-0.75391-7.6836 0-21.703 17.656-39.359 39.359-39.359 8.125 0 15.949 2.4883 22.625 7.1875l5.8477 4.1172 4.6602-5.4219c7.5039-8.7422 18.383-13.754 29.844-13.754 11.461 0 22.34 5.0156 29.852 13.754l4.668 5.4219 5.8398-4.1172c6.668-4.6992 14.492-7.1875 22.617-7.1875 21.703 0 39.359 17.656 39.359 39.359 0 1.6133-0.14062 3.1875-0.32422 4.7461l-0.51172 4.3203 3.3867 2.7305c8.3828 6.7812 13.195 16.828 13.195 27.562 0 18.066-13.281 32.883-31.047 35.062-2.6484-1.1953-5.4023-2.1797-8.3125-2.7773v-24.41h-15.742c0 13.02-10.598 23.617-23.617 23.617-5.3125 0-10.406-1.8438-14.73-5.3359l-4.9531-4.0039-4.9531 4c-8.6445 6.9922-20.82 6.9922-29.457 0l-4.9492-4-4.9531 4c-4.3203 3.4961-9.4141 5.3359-14.727 5.3359-13.02 0-23.617-10.598-23.617-23.617h-15.742v24.41c-4.9844 1.0156-9.6055 3.0078-13.715 5.7148-15.004-4.2227-25.645-17.867-25.645-34.059zm23.613 66.91c0-6.2188 2.4648-11.84 6.3984-16.059 0.26172 0.023437 0.50391 0.078125 0.76172 0.10156l0.09375-1.0156c2.3945-2.3125 5.2891-4.0625 8.4844-5.2031v44.328c-9.1328-3.2422-15.738-11.902-15.738-22.152zm31.488 31.488v-63.18c6.5977 5 14.723 8.0781 23.617 8.0781 6.9766 0 13.672-1.8516 19.68-5.3984 12.004 7.0859 27.355 7.0859 39.359 0 6.0078 3.5469 12.707 5.3984 19.68 5.3984 8.8945 0 17.02-3.0781 23.617-8.0781v63.18c0 34.723-28.254 62.977-62.977 62.977s-62.977-28.25-62.977-62.977zm62.977 78.723c14.344 0 27.766-3.9219 39.359-10.652v8.0039c-3.9805 4.8438-17.098 18.391-39.359 18.391-22.309 0-35.352-13.492-39.359-18.391v-8.0039c11.594 6.7305 25.016 10.652 39.359 10.652zm-47.23 188.93c-19.012 0-34.914-13.547-38.566-31.488h171.6c-3.6602 17.941-19.555 31.488-38.566 31.488zm132.95 0c10.242-10.016 16.617-23.949 16.617-39.363v-7.8711h-204.67v7.8711c0 15.414 6.375 29.348 16.617 39.359l-115.2 0.003906 25.191-62.977h81.262v-15.742h-62.977v-42.438c0-17.805 12.012-33.441 29.223-38.031l78.066-20.812c6.8711 7.7422 23.508 22.559 50.152 22.559 26.648 0 43.281-14.816 50.152-22.562l78.066 20.812c17.211 4.5898 29.223 20.234 29.223 38.031v42.438h-62.977v15.742h81.262l25.191 62.977z"/>
  <path d="m337.02 537.08c5.0781-5.0781 7.8711-11.824 7.8711-19.004s-2.793-13.934-7.8711-19.004l-2.3047-2.3047-11.133 11.133 2.3047 2.3047c2.1016 2.1094 3.2578 4.8945 3.2578 7.8711s-1.1562 5.7617-3.2578 7.8711l-1.6133 1.6133c-4.4727 4.4727-6.9336 10.414-6.9336 16.734 0 5.0859 1.6836 10.133 4.7383 14.199l8.6445 11.539 12.594-9.4375-8.6523-11.531c-1.0391-1.3867-1.582-3.0312-1.582-4.7539 0-2.1172 0.82031-4.1016 2.3203-5.6055z"/>
  <path d="m392.12 521.34c5.0781-5.0781 7.8711-11.824 7.8711-19.004 0-7.1797-2.793-13.934-7.8711-19.004l-2.3047-2.3047-11.133 11.133 2.3086 2.3047c2.1016 2.1133 3.2578 4.8984 3.2578 7.875 0 2.9766-1.1562 5.7617-3.2578 7.8711l-1.6133 1.6133c-4.4727 4.4727-6.9336 10.414-6.9336 16.734 0 5.0859 1.6836 10.133 4.7383 14.199l8.6406 11.535 12.594-9.4375-8.6523-11.531c-1.0391-1.3867-1.582-3.0312-1.582-4.7539 0-2.1172 0.82031-4.1016 2.3203-5.6055z"/>
  <path d="m439.36 537.08c5.0781-5.0781 7.8711-11.824 7.8711-19.004s-2.793-13.934-7.8711-19.004l-2.3047-2.3047-11.133 11.133 2.3047 2.3047c2.1016 2.1094 3.2617 4.8945 3.2617 7.8711s-1.1562 5.7617-3.2578 7.8711l-1.6133 1.6133c-4.4727 4.4727-6.9336 10.414-6.9336 16.734 0 5.0859 1.6836 10.133 4.7383 14.199l8.6406 11.539 12.594-9.4375-8.6523-11.531c-1.0391-1.3867-1.582-3.0312-1.582-4.7539 0-2.1172 0.82031-4.1016 2.3203-5.6055z"/>
  <path d="m431.49 321.28c0 4.3477-3.5273 7.8711-7.875 7.8711-4.3477 0-7.8711-3.5234-7.8711-7.8711s3.5234-7.8711 7.8711-7.8711c4.3477 0 7.875 3.5234 7.875 7.8711"/>
  <path d="m352.77 321.28c0 4.3477-3.5234 7.8711-7.8711 7.8711-4.3477 0-7.8711-3.5234-7.8711-7.8711s3.5234-7.8711 7.8711-7.8711c4.3477 0 7.8711 3.5234 7.8711 7.8711"/>
  <path d="m344.89 392.12h78.719v-23.617c0-13.02-10.598-23.617-23.617-23.617-13.02 0-23.617 10.598-23.617 23.617v7.8711h-31.488zm47.23-23.613c0-4.3359 3.5273-7.8711 7.8711-7.8711s7.8711 3.5352 7.8711 7.8711v7.8711h-15.742z"/>
  <path d="m587.97 329.15c-5.3281 0-10.555 1.7773-14.793 4.9531-4.2305-3.1719-9.457-4.9531-14.789-4.9531-13.547 0-24.566 11.023-24.566 24.57 0 6.5664 2.5508 12.738 7.1953 17.375l32.164 32.164 32.164-32.164c4.6445-4.6367 7.1953-10.809 7.1953-17.375 0-13.547-11.02-24.57-24.57-24.57zm6.2461 30.812-21.035 21.035-21.035-21.035c-1.668-1.668-2.582-3.8789-2.582-6.2422 0-4.8633 3.9609-8.8242 8.8242-8.8242 2.3203 0 4.5977 0.94531 6.2422 2.582l8.5508 8.5469 8.5508-8.5508c1.6445-1.6328 3.918-2.5781 6.2383-2.5781 4.8672 0 8.8281 3.9609 8.8281 8.8242 0 2.3633-0.91406 4.5742-2.582 6.2422z"/>
  <path d="m573.18 289.79c-39.07 0-70.848 31.789-70.848 70.848 0 8.8398 1.6367 17.484 4.8711 25.734l-17.168 37.242h50.711c9.9961 5.1562 21.16 7.8711 32.434 7.8711 39.07 0 70.848-31.789 70.848-70.848 0-39.059-31.781-70.848-70.848-70.848zm0 125.95c-9.3047 0-18.523-2.3867-26.656-6.8867l-1.7695-0.98438h-30.117l9.832-21.316-1.4805-3.2734c-3.2617-7.2148-4.9141-14.832-4.9141-22.645 0-30.387 24.727-55.105 55.105-55.105s55.105 24.719 55.105 55.105-24.727 55.105-55.105 55.105z"/>
 </g>
</svg>